<?xml version="1.0" standalone="no"?><!DOCTYPE svg PUBLIC "-//W3C//DTD SVG 1.1//EN" "http://www.w3.org/Graphics/SVG/1.1/DTD/svg11.dtd"><svg t="1584328725188" class="icon" viewBox="0 0 1024 1024" version="1.1" xmlns="http://www.w3.org/2000/svg" p-id="4600" xmlns:xlink="http://www.w3.org/1999/xlink" width="200" height="200"><defs><style type="text/css"></style></defs><path d="M877.714286 0H146.285714c-20.228571 0-36.571429 16.342857-36.571428 36.571429v950.857142c0 20.228571 16.342857 36.571429 36.571428 36.571429h731.428572c20.228571 0 36.571429-16.342857 36.571428-36.571429V36.571429c0-20.228571-16.342857-36.571429-36.571428-36.571429z m-297.142857 82.285714h109.714285v239.885715L637.142857 283.428571 580.571429 323.885714V82.285714z m251.428571 859.428572H192V82.285714h320v339.314286c0 3.771429 1.142857 7.542857 3.428571 10.628571a18.171429 18.171429 0 0 0 25.485715 4.228572l95.771428-68.457143 93.028572 67.885714c3.085714 2.285714 6.857143 3.542857 10.742857 3.542857 10.057143 0 18.285714-8.228571 18.285714-18.285714V82.285714h73.142857v859.428572z" p-id="4601"></path></svg>