<?xml version="1.0" standalone="no"?><!DOCTYPE svg PUBLIC "-//W3C//DTD SVG 1.1//EN" "http://www.w3.org/Graphics/SVG/1.1/DTD/svg11.dtd"><svg t="1585210572274" class="icon" viewBox="0 0 1152 1024" version="1.1" xmlns="http://www.w3.org/2000/svg" p-id="2205" xmlns:xlink="http://www.w3.org/1999/xlink" width="225" height="200"><defs><style type="text/css"></style></defs><path d="M805.2 166.4l180.4 180.4c7.6 7.6 7.6 20 0 27.6L548.8 811.2l-185.6 20.6c-24.8 2.8-45.8-18.2-43-43l20.6-185.6L777.6 166.4c7.6-7.6 20-7.6 27.6 0z m324-45.8l-97.6-97.6c-30.4-30.4-79.8-30.4-110.4 0l-70.8 70.8c-7.6 7.6-7.6 20 0 27.6l180.4 180.4c7.6 7.6 20 7.6 27.6 0l70.8-70.8c30.4-30.6 30.4-80 0-110.4zM768 692.4V896H128V256h459.6c6.4 0 12.4-2.6 17-7l80-80c15.2-15.2 4.4-41-17-41H96C43 128 0 171 0 224v704c0 53 43 96 96 96h704c53 0 96-43 96-96V612.4c0-21.4-25.8-32-41-17l-80 80c-4.4 4.6-7 10.6-7 17z" fill="" p-id="2206"></path></svg>