<?xml version="1.0" standalone="no"?><!DOCTYPE svg PUBLIC "-//W3C//DTD SVG 1.1//EN" "http://www.w3.org/Graphics/SVG/1.1/DTD/svg11.dtd"><svg t="1588235904194" class="icon" viewBox="0 0 1024 1024" version="1.1" xmlns="http://www.w3.org/2000/svg" p-id="2069" xmlns:xlink="http://www.w3.org/1999/xlink" width="200" height="200"><defs><style type="text/css"></style></defs><path d="M213.34016 0l426.65984 0 298.65984 298.65984 0 597.34016q0 53.00224-37.49888 90.50112t-90.50112 37.49888l-597.34016 0q-53.00224 0-90.50112-37.49888t-37.49888-90.50112l0-768q0-53.00224 37.49888-90.50112t90.50112-37.49888zM554.65984 384l0-298.65984-341.34016 0q-18.00192 0-30.33088 12.32896t-12.32896 30.33088l0 768q0 18.00192 12.32896 30.33088t30.33088 12.32896l597.34016 0q18.00192 0 30.33088-12.32896t12.32896-30.33088l0-512-298.65984 0zM817.99168 298.65984l-177.99168-177.99168 0 177.99168 177.99168 0z" p-id="2070"></path></svg>