<?xml version="1.0" standalone="no"?><!DOCTYPE svg PUBLIC "-//W3C//DTD SVG 1.1//EN" "http://www.w3.org/Graphics/SVG/1.1/DTD/svg11.dtd"><svg t="1584327121587" class="icon" viewBox="0 0 1024 1024" version="1.1" xmlns="http://www.w3.org/2000/svg" p-id="1746" xmlns:xlink="http://www.w3.org/1999/xlink" width="200" height="200"><defs><style type="text/css"></style></defs><path d="M511.96416 721.8688l-394.0864-207.0528 97.792-51.39456 278.90688 146.5344a36.52096 36.52096 0 0 0 17.38752 4.34176c5.9904 0 11.98592-1.41824 17.3824-4.33664l278.912-146.5344 97.792 51.38432-394.0864 207.0528z m394.0864-20.352l-394.0864 206.98112-394.0864-206.98112 97.18784-51.16416 279.51104 146.8416a36.52096 36.52096 0 0 0 17.38752 4.33664c5.9904 0 11.98592-1.42336 17.3824-4.34176l279.51104-146.75968 97.19296 51.08736z m-394.0864-580.9152l394.0864 206.98112-394.0864 207.0528-394.0864-207.0528 394.0864-206.976zM1024 514.816a37.31456 37.31456 0 0 0-20.08064-33.05984l-115.17952-60.5184 115.17952-60.51328A37.4272 37.4272 0 0 0 1024 327.58272a37.39648 37.39648 0 0 0-20.08064-33.05984l-474.5728-249.2416a37.1456 37.1456 0 0 0-34.7648 0L20.07552 294.52288A37.39648 37.39648 0 0 0 0 327.5776a37.4272 37.4272 0 0 0 20.08064 33.13664l115.17952 60.5184L20.08064 481.74592A37.31456 37.31456 0 0 0 0 514.81088a37.4272 37.4272 0 0 0 20.08064 33.13664l114.65216 60.21632-114.65216 60.21632A37.4272 37.4272 0 0 0 0 701.5168a37.39648 37.39648 0 0 0 20.08064 33.06496l474.496 249.2416a36.52096 36.52096 0 0 0 17.38752 4.33664c5.9904 0 11.98592-1.42336 17.3824-4.33664l474.5728-249.2416a37.39648 37.39648 0 0 0 20.08064-33.06496 37.4272 37.4272 0 0 0-20.08064-33.13664l-114.65216-60.2112 114.65216-60.22144A37.4272 37.4272 0 0 0 1024 514.816z" p-id="1747"></path></svg>