<?xml version="1.0" standalone="no"?><!DOCTYPE svg PUBLIC "-//W3C//DTD SVG 1.1//EN" "http://www.w3.org/Graphics/SVG/1.1/DTD/svg11.dtd"><svg t="1585642074653" class="icon" viewBox="0 0 1024 1024" version="1.1" xmlns="http://www.w3.org/2000/svg" p-id="1767" xmlns:xlink="http://www.w3.org/1999/xlink" width="200" height="200"><defs><style type="text/css"></style></defs><path d="M557.632 60.64c-132.48 2.88-208.256 62.496-212.48 65.856-3.392 1.12-90.88 31.136-108.64 109.376-2.752 1.12-3.52 0.992-7.52 3.392-8 5.248-17.984 13.856-26.112 27.744-15.52 26.368-22.016 71.616-5.12 141.984-23.52 18.144-36.256 46.496-36.48 76.48-0.288 34.88 11.584 71.392 35.456 96.896 21.376 22.88 42.144 32.768 58.144 36.16 6.24 1.344 6.496 0.096 11.136 0 2.88 14.976 13.76 58.336 37.12 103.36-13.504 7.616-52.16 29.248-97.632 55.616-25.6 14.88-50.88 29.76-70.016 41.504-9.472 5.984-17.376 11.104-23.36 15.232a120.288 120.288 0 0 0-7.616 5.76 24.96 24.96 0 0 0-3.392 3.136c-1.248 1.504-3.744 2.368-4.608 9.984l-1.28 12.256L133.28 960h758.496l3.52-11.264s8.736-27.744 17.12-59.104a904.96 904.96 0 0 0 11.52-46.752c2.976-14.752 5.216-26.624 4.608-37.504-0.512-6.24-2.496-8.512-4-10.88a65.12 65.12 0 0 0-5.12-6.496 181.696 181.696 0 0 0-13.888-13.632 869.44 869.44 0 0 0-38.624-32.48c-22.4-17.888-36.64-28.384-44.48-34.4 6.72-8.352 21.216-23.488 39.712-70.368 22.624-56.992 42.752-143.616 34.4-262.24-8-112.256-46.752-190.4-103.872-240.384-46.272-40.256-103.52-61.504-164.256-69.76v-0.224c-0.512 0-0.896 0.128-1.376 0a516.928 516.928 0 0 0-42.144-3.776 497.344 497.344 0 0 0-27.232-0.096z m34.88 35.84c10.24-0.608 20.864-0.48 31.872 0 55.744 7.648 106.88 26.88 147.232 62.272 22.144 19.36 41.28 43.872 56.512 74.112a84.256 84.256 0 0 0-34.24-5.856c-27.136 1.504-47.04 14.368-47.04 14.368l17.152 27.136s13.888-8.64 31.488-9.504c17.28-0.896 36.896 3.616 55.776 36 6.368 24.352 10.976 51.104 13.248 81.248-1.024-1.76-1.76-3.264-3.008-5.248a1169.6 1169.6 0 0 0-12.992-23.264c-9.504-16.256-18.752-31.872-18.752-31.872l-27.52 16.256a3701.664 3701.664 0 0 0 31.264 54.24c1.12 1.888 1.76 3.136 2.496 4.64-1.376 0.736-2.016 1.248-4.992 1.856-9.76 2.144-26.016 1.888-41.632-2.752l-8.864 30.88c20.48 5.888 40.64 6.752 57.12 3.136 8.384-1.76 15.872-4.384 22.496-10.016a30.496 30.496 0 0 0 5.76-7.104c2.976 98.368-14.528 170.368-33.376 218.368-20.896 52.736-42.496 75.744-42.496 75.744l-12 13.12v0.128c-17.504 17.12-57.28 47.36-124.512 52.256-93.504 6.88-157.504-51.616-188.384-84.48-29.504-31.264-33.6-55.136-33.6-55.136l-31.52 6.112s7.36 34.368 41.888 71.008c13.76 14.624 34.88 34.752 62.24 52.864-2.016 0.128-4.128-0.128-6.24 0.256-12.512 2.112-24.896 7.872-33.504 18.496-45.376-2.624-77.248-15.744-97.504-28.864-21.76-14.24-30.016-26.496-30.24-26.88-21.376-34.752-34.016-83.52-39.136-106.496 8.64-4.384 19.36-12.256 30.496-25.888l-24.864-20.256c-8.768 10.624-16 15.52-20.64 17.92l-0.256 0.096-8 2.496s-3.104 1.376-12.608-0.64c-9.504-1.984-24-8-41.504-26.72-16.864-18.016-27.136-47.776-26.88-74.624 0.256-27.008 10.016-48.768 28.256-58.016l0.512-0.384c21.6-12 36-13.6 45.76-11.616 9.728 2.016 16.48 7.616 22.208 15.744 11.648 16.384 15.04 41.024 15.04 41.024l2.24 19.84 64.864-22.368-1.6-12.864s-3.04-22.112-12.544-49.248c-5.856-16.384-3.232-37.632 3.008-59.616 6.144-22.016 15.264-43.744 19.008-63.648 4-20.992-1.12-36-6.88-46.24 11.52-23.232 72.768-133.632 219.392-141.984z m-140 12.64a327.232 327.232 0 0 0-102.144 104.864l-4.352 0.512c-29.632 2.752-55.264 7.488-74.528 11.616 22.272-47.36 85.504-70.112 85.504-70.112l2.88-0.992 2.24-1.888s31.52-25.984 90.4-44z m73.984 125.12c-33.504 1.76-56.384 18.4-68.608 37.024-16.512 24.864-17.376 51.84-17.376 51.84l31.872 1.76s1.376-19.744 12.128-36c10.752-16.224 27.232-30.368 71.616-20l7.36-31.104a131.456 131.456 0 0 0-36.992-3.52z m-185.76 13.504c6.528 7.264 11.648 11.008 7.904 31.008-2.624 13.984-11.776 36.48-18.624 61.12-6.752 24.512-11.648 52.128-2.24 78.752 5.984 16.992 6.464 23.36 7.712 30.4l-5.472 1.856c-2.016-11.008-1.632-20.64-13.76-37.76-9.12-12.736-23.008-24.736-42.24-28.608-14.272-2.88-30.528-1.024-48.768 6.112-12.608-59.008-4.48-90.88 5.248-107.36 5.248-9.152 11.264-14.144 15.616-16.896a23.552 23.552 0 0 1 6.144-3.104h0.256s43.744-10.24 88.224-15.52z m256 73.12l-29.472 12.384s21.76 51.52 36.096 76.864c-0.96 0.64-1.12 1.024-4.48 1.76-10.752 2.368-31.264 1.28-54.496-8.864l-12.896 29.376c28.512 12.352 54.4 15.104 74.144 10.752 9.856-2.144 18.88-5.76 25.376-14.016 6.624-8.256 7.232-22.24 1.6-31.488-9.984-16.64-35.84-76.768-35.84-76.768z m123.904 19.136l-32 0.384s0.864 76.128 61.856 131.36h-0.128c25.632 23.264 36.384 38.4 38.144 43.744 0.864 2.752 0.64 2.496 0.128 3.52a27.136 27.136 0 0 1-6.016 6.976c-4.736 4.256-23.488 13.632-43.744 19.776-20.256 6.112-43.008 10.112-57.376 9.728-5.376-0.224-6.144-1.248-7.008-2.112-0.992-0.992-1.984-3.136-2.496-6.496-0.992-6.624 0.864-15.136 0.864-15.136l-31.104-7.872s-3.648 12.864-1.376 27.744c1.12 7.52 3.84 16.128 10.624 23.52 6.88 7.36 17.728 12 29.632 12.352 20.48 0.512 44.864-4.224 67.488-11.104 22.624-6.88 42.624-14.624 55.872-26.624 5.248-4.768 10.496-10.144 13.888-17.76 3.36-7.616 3.84-17.504 1.12-26.368-5.76-17.504-20.256-33.12-47.136-57.632-50.24-45.504-51.232-108-51.232-108z m-474.624 105.28c-10.24 0.608-21.024 5.216-30.752 13.216l17.984 21.632c-4.384 13.12-8.736 32.384-5.12 52.256l31.488-5.76c-1.728-9.504 0.896-22.4 3.744-33.12 4 8.128 7.136 16.128 7.136 16.128l30.88-8.128s-4.64-19.52-17.12-36c-6.4-8.256-15.264-16.768-28.256-19.52a33.504 33.504 0 0 0-10.016-0.736z m563.104 123.2c-24.384 27.648-68.992 31.392-68.992 31.392l1.856 32s55.776-1.856 91.136-42.368z m-214.72 11.392l-20.288 24.768c67.904 55.104 149.888 31.488 149.888 31.488l-8.864-30.624s-66.144 18.624-120.768-25.6z m-8.896 51.264l-30.88 8.736c6.24 22.24 21.76 38.144 39.36 48 17.504 9.888 37.376 14.496 56.128 16.992 37.504 4.896 71.52 0.256 71.52 0.256l-4.16-31.744s-30.848 4-63.104-0.256c-16.256-1.984-32.48-6.24-44.864-13.12-12.256-7.008-20.384-15.488-24-28.864z m218.112 102.368c8 6.112 21.632 16.128 43.264 33.376 13.632 10.88 27.232 22.112 37.12 31.136a166.4 166.4 0 0 1 11.52 11.36l0.608 0.64c-0.128 4.096-0.992 13.76-3.616 26.24-2.88 13.76-7.04 29.856-11.008 45.12-6.752 24.64-11.136 38.88-13.504 46.624h-37.632l-1.12-9.12c-1.376-12.256-8-19.744-14.72-24.864 1.216-2.4 2.848-4.64 3.584-7.04 3.392-9.856 4.384-20.224 4.384-30.336 0.256-20.384-3.36-40.896-4.736-52.16-2.144-18.368-9.12-34.112-20.896-44.864a54.176 54.176 0 0 0-13.76-8.64c8.512-6.336 15.52-12.48 20.512-17.472z m-487.36 17.6c4.864 11.264 13.376 28.384 35.232 56.768 30.752 40 81.504 54.016 105.376 58.496 1.376 14.88 3.136 29.12 7.04 42.016 1.984 6.88 4.832 13.504 8.736 19.616H154.752l-26.496-66.016c0.864-0.608 1.12-0.864 2.112-1.472 4.992-3.52 12.768-8.512 22.144-14.144a2701.44 2701.44 0 0 1 68.992-41.12c44-25.504 78.88-45.12 94.72-54.112z m441.984 28.032c7.648-1.504 12.48 0.128 17.12 4.352 4.64 4.16 9.152 12.16 10.624 24.768 1.504 12.992 4.64 31.872 4.512 48.256 0 8.128-0.992 15.488-2.496 20.128-1.6 4.736-3.264 6.24-4.992 7.104-12.768 6.496-36.16 5.12-56 0.256a229.504 229.504 0 0 1-23.264-7.264c1.888-4.992 3.136-10.368 3.136-16 0-14.24-6.624-26.88-16.768-35.616 10.752-8.48 22.528-17.856 34.752-26.496a313.6 313.6 0 0 1 21.248-13.888c6.272-3.488 11.648-5.472 12.16-5.6z m-383.104 6.368a232.896 232.896 0 0 0 77.76 21.632 93.12 93.12 0 0 0 0.224 16.64c0.384 2.72 0.512 5.344 0.768 8.224-22.144-5.888-57.504-18.112-77.12-43.616-1.408-1.76-0.384-1.12-1.632-2.88z m140.864 3.008a133.76 133.76 0 0 1 46.496 13.12l59.392 31.008c-6.016 7.872-9.76 17.6-9.76 28.096 0 8.512 2.496 16.384 6.496 23.36-20.992 12.032-61.632 32.896-95.136 35.392-10.976 0.768-16.224-1.248-19.84-4-3.52-2.752-6.656-7.616-9.152-16.224-5.12-17.28-5.76-46.624-9.504-79.264-1.6-12.992 0.768-19.744 3.52-23.616 2.88-3.872 7.104-6.4 14.496-7.52 3.744-0.64 8.128-0.736 12.992-0.352z m160.384 6.976c-5.024 3.872-11.264 8.384-15.264 11.52 1.504-1.12-4.128 1.248-9.76 1.12a42.88 42.88 0 0 1-8.352-0.64l-17.024-8.864c9.632 0.64 19.52 0.64 29.76-0.128 7.36-0.48 13.76-1.856 20.64-3.008z m-16.896 50.016c8.64 0 15.36 6.624 15.36 15.232 0 8.64-6.72 15.264-15.36 15.264a15.104 15.104 0 0 1-15.36-15.264c0-8.64 6.72-15.232 15.36-15.232z m26.624 58.112c5.024 2.24 14.272 6.496 31.648 10.88V928h-55.264l-10.496-20.736c2.496 0.352 4.992 0.736 7.488 0.736 1.024 0 1.888-0.256 2.88-0.256 5.12 1.632 10.016 2.752 13.888 1.632 5.984-1.888 6.368-3.264 9.856-5.76z m103.36 11.872v0.512s7.68 3.264 8 6.496l0.64 5.504H749.76v-8c13.12 0.992 26.752 0.128 39.744-4.48z m-167.36 3.776l4.512 8.736h-21.504c6.144-3.008 12-6.016 16.992-8.736z" p-id="1768"></path></svg>