<?xml version="1.0" standalone="no"?><!DOCTYPE svg PUBLIC "-//W3C//DTD SVG 1.1//EN" "http://www.w3.org/Graphics/SVG/1.1/DTD/svg11.dtd"><svg t="1591068441523" class="icon" viewBox="0 0 1024 1024" version="1.1" xmlns="http://www.w3.org/2000/svg" p-id="2104" xmlns:xlink="http://www.w3.org/1999/xlink" width="300" height="300"><defs><style type="text/css"></style></defs><path d="M506.9 531.5c-101 0-183.2-82.2-183.2-183.2 0-101 82.2-183.2 183.2-183.2s183.2 82.2 183.2 183.2c0 101-82.2 183.2-183.2 183.2z m0-316.5c-73.5 0-133.2 59.8-133.2 133.2s59.8 133.2 133.2 133.2 133.2-59.8 133.2-133.2S580.3 215 506.9 215z" p-id="2105"></path><path d="M762.9 862.6H261.8c-25.9 0-50.1-11.6-66.4-31.8-16.3-20.2-22.5-46.3-16.9-71.7 16.8-77.2 58.8-147.4 118.4-197.5 29.8-25.1 63.2-44.7 99.1-58.1 37.3-14 76.4-21.1 116.4-21.1s79.1 7.1 116.4 21.1c36 13.5 69.3 33 99.1 58.1 59.6 50.1 101.6 120.3 118.4 197.5 5.5 25.4-0.7 51.5-16.9 71.7-16.4 20.2-40.6 31.8-66.5 31.8zM512.4 532.4c-137.5 0-254.7 97.6-285.1 237.3-2.3 10.5 0.3 21.3 7 29.7 6.7 8.4 16.8 13.2 27.5 13.2h501.1c10.7 0 20.8-4.8 27.5-13.2 6.7-8.4 9.3-19.2 7-29.7C767 630 649.8 532.4 512.4 532.4z" p-id="2106"></path></svg>