<?xml version="1.0" standalone="no"?><!DOCTYPE svg PUBLIC "-//W3C//DTD SVG 1.1//EN" "http://www.w3.org/Graphics/SVG/1.1/DTD/svg11.dtd"><svg t="1585733567178" class="icon" viewBox="0 0 1024 1024" version="1.1" xmlns="http://www.w3.org/2000/svg" p-id="2325" xmlns:xlink="http://www.w3.org/1999/xlink" width="200" height="200"><defs><style type="text/css"></style></defs><path d="M883.2 261.6c-26.9-15.8-58.1-20.9-89.2-14.9-13.5-20-28.8-39-46.5-56.7C626.3 68.8 445.1 42.8 298.7 113.9c-51.1-44.6-129.6-42.3-178.4 6.5s-51.1 127.3-6.5 178.4C42.7 445.1 68.7 626.2 190 747.5c17.7 17.7 36.7 33 56.7 46.5-6 31.1-0.9 62.2 14.9 89.2 17.7 30.7 46 52.5 79.5 61.8 33.9 8.8 69.2 4.2 99.9-13.5 10.2-5.6 19.5-13 27.4-20.9 13.9-13.9 24.2-30.7 30.7-49.2 91.1-6.5 179.8-45.1 248.6-113.8S854.9 590 861.4 499c18.6-6.5 35.3-16.7 49.3-30.7 7.9-7.9 15.3-17.2 20.9-27.4 17.7-30.7 22.3-66 13.5-99.9-9.4-33.4-31.2-61.8-61.9-79.4z m-731.8-26.5c-8.4-23.2-3.3-49.7 15.3-68.3s45.1-23.7 68.3-15.3c8.8 3.3 17.7 8.4 24.6 15.3 9.8 9.8 15.8 22.3 18.1 34.8 3.7 20.4-2.3 42.3-18.1 58.1s-37.6 21.8-58.1 18.1c-12.5-2.3-25.1-8.4-34.8-18.1-6.9-6.9-12-15.8-15.3-24.6zM439 834.8c-2.3 9.8-7.4 18.6-13.9 25.1-15.3 19-41.4 28.3-66.9 21.4-16.7-4.6-31.1-15.3-40-30.7-3.7-6.5-6-13.5-7-20.9-2.3-8.8-1.9-19.5 0.5-29.3 2.8-11.2 8.8-20.9 17.2-29.3 0.9-0.9 2.3-2.3 4.2-3.3 2.8-2.8 6-5.1 9.3-7.4 14.9-8.4 33-10.7 49.7-6 21.4 5.6 37.2 21.4 44.6 40.9 5.1 11.6 6 25.6 2.3 39.5zM701.1 701c-54.8 54.8-124.5 86.4-196.5 93.4-8.8-47.8-44.6-90.1-95.3-103.6-33.9-8.8-69.2-4.2-99.9 13.5-13.5 7.9-25.1 17.7-34.4 28.8-13.9-9.3-26.5-20-38.6-32.1-98.5-98.5-121.7-244.3-68.3-364.6 46 17.2 100.8 7 138-30.2s47.4-92 30.2-138C456.6 114.8 602.5 138 701 236.5c12.1 12.1 22.8 24.6 32.1 38.6-11.2 9.3-20.9 20.9-28.8 34.4-17.7 30.7-22.3 66-13.5 99.9 6 22.8 17.7 42.7 33.5 58.5 19 19 43.7 31.6 70.2 36.7-7 71.9-38.6 141.6-93.4 196.4z m180.2-342.8c7 25.5-2.3 51.6-21.4 66.9-6.5 6.5-15.3 11.6-25.1 13.9-13.9 3.7-27.9 2.8-39.5-2.3-19.5-7.4-35.3-23.2-40.9-44.6-4.6-16.7-2.3-34.8 6-49.7 2.3-3.3 4.6-6.5 7.4-9.3 8.4-10.2 19.5-17.7 32.5-21.4 9.8-2.3 20.4-2.8 29.3-0.5 7.4 0.9 14.4 3.3 20.9 7 15.5 8.9 26.2 23.3 30.8 40z" fill="" p-id="2326"></path></svg>