<?xml version="1.0" standalone="no"?><!DOCTYPE svg PUBLIC "-//W3C//DTD SVG 1.1//EN" "http://www.w3.org/Graphics/SVG/1.1/DTD/svg11.dtd"><svg t="1590129456958" class="icon" viewBox="0 0 1024 1024" version="1.1" xmlns="http://www.w3.org/2000/svg" p-id="2083" xmlns:xlink="http://www.w3.org/1999/xlink" width="300" height="300"><defs><style type="text/css"></style></defs><path d="M854.44 252.05L705.1 105.18A32.043 32.043 0 0 0 682.66 96H192c-17.67 0-32 14.33-32 32v768c0 17.67 14.33 32 32 32h640c17.67 0 32-14.33 32-32V274.87c0-8.58-3.45-16.8-9.56-22.82zM800 864H224V160h383.86l0.11 128.06c0.03 35.25 28.73 63.94 64 63.94H800v512zM671.97 288l-0.1-125.73L799.72 288H671.97z" p-id="2084"></path><path d="M320 416h192c17.67 0 32-14.33 32-32s-14.33-32-32-32H320c-17.67 0-32 14.33-32 32s14.33 32 32 32zM288 544c0 17.67 14.33 32 32 32h384c17.67 0 32-14.33 32-32s-14.33-32-32-32H320c-17.67 0-32 14.33-32 32zM704 672H320c-17.67 0-32 14.33-32 32s14.33 32 32 32h384c17.67 0 32-14.33 32-32s-14.33-32-32-32z" p-id="2085"></path></svg>