<?xml version="1.0" standalone="no"?><!DOCTYPE svg PUBLIC "-//W3C//DTD SVG 1.1//EN" "http://www.w3.org/Graphics/SVG/1.1/DTD/svg11.dtd"><svg t="1589963702098" class="icon" viewBox="0 0 1024 1024" version="1.1" xmlns="http://www.w3.org/2000/svg" p-id="2229" width="300" height="300" xmlns:xlink="http://www.w3.org/1999/xlink"><defs><style type="text/css"></style></defs><path d="M638.72 808.533333l-109.226667-257.28c-43.52 84.906667-91.306667 174.08-132.266666 257.28-0.426667 0.426667-20.053333 0-20.053334 0C314.453333 661.333333 249.6 516.266667 186.453333 370.346667 171.946667 334.506667 120.746667 277.333333 85.333333 277.333333v-19.2h215.893334v19.2c-25.6 0-69.12 17.066667-58.026667 44.8 30.72 65.706667 138.24 320.426667 167.68 385.28 20.053333-40.106667 76.8-145.92 101.12-190.72-19.2-37.546667-79.786667-178.346667-97.706667-213.333333-13.653333-23.04-48.213333-26.026667-74.666666-26.026667 0-6.4 0.426667-10.666667 0-18.773333l190.293333 0.426667v17.066666c-26.026667 1.28-50.346667 10.24-39.253333 34.986667 25.6 52.906667 40.533333 90.88 64 139.946667 7.253333-14.506667 45.653333-93.44 64-134.826667 11.093333-27.733333-5.546667-38.826667-51.626667-38.826667 0.426667-5.12 0.426667-14.08 0.426667-18.346666 59.306667-0.426667 148.48-0.426667 164.266666-0.853334v17.92c-30.293333 1.28-61.44 17.493333-77.653333 42.24L576 482.133333c7.68 21.76 83.626667 190.293333 91.733333 209.066667l164.266667-376.746667c-12.8-30.72-49.493333-37.12-64-37.12v-19.2l170.666667 1.28V277.333333c-37.546667 0-61.013333 21.333333-74.666667 53.333334-34.133333 76.373333-138.666667 319.573333-206.933333 477.866666h-18.346667z" fill="#dbdbdb" p-id="2230"></path></svg>